# xmcd CD database file generated by Grip 3.0.1
# 
# Track frame offsets:
#       150
#       20684
#       38252
#       63154
#       80948
#       92122
#       123723
#       167034
#       186217
#       210787
#       235584
#       250645
#       278455
#       301270
# 
# Disc length: 4274 seconds
# 
# Revision: 2
# Processed by: cddbd v1.4PL0 Copyright (c) Steve Scherf et al.
# Submitted via: Grip 3.0.1
# 
DISCID=aa10b00e
DTITLE=Various Artist - The Saint Soundtrack
DYEAR=1997
DGENRE=Soundtrack
TTITLE0=Orbital - The Saint theme
TTITLE1=Sneaker Pimps - 6 underground (Nellee Hooper mix)
TTITLE2=Moby - Oil 1
TTITLE3=Fluke - Atom bomb
TTITLE4=Luscious Jackson - Roses fade (Mojo mix)
TTITLE5=The Chemical Brothers - Setting sun (instrumental)
TTITLE6=Underworld - Pearl's girl
TTITLE7=Duran Duran - Out of my mind
TTITLE8=Daft Punk - Da Funk
TTITLE9=David Bowie - Little wonder (Danny Saber dance mix)
TTITLE10=Superior - Polariod Millenium
TTITLE11=Dreadzone - A dream within a dream
TTITLE12=Duncan Sheik - In the absence of sun
TTITLE13=Everything But The Girl - Before today
EXTD=
EXTT0=
EXTT1=
EXTT2=
EXTT3=
EXTT4=
EXTT5=
EXTT6=
EXTT7=
EXTT8=
EXTT9=
EXTT10=
EXTT11=
EXTT12=
EXTT13=
PLAYORDER=
